<svg width="16" height="16" viewBox="0 0 16 16" fill="none" xmlns="http://www.w3.org/2000/svg">
<path d="M13.6311 13.6347H11.2622V9.92178C11.2622 9.03644 11.2444 7.89689 10.0267 7.89689C8.792 7.89689 8.60356 8.86044 8.60356 9.85689V13.6347H6.23378V6H8.50933V7.04H8.54044C8.85867 6.44089 9.632 5.80711 10.7876 5.80711C13.1876 5.80711 13.632 7.38756 13.632 9.44355V13.6347H13.6311ZM3.55822 4.95556C3.37738 4.95579 3.19828 4.92033 3.03117 4.85121C2.86406 4.78208 2.71224 4.68066 2.58441 4.55274C2.45657 4.42483 2.35525 4.27294 2.28623 4.10579C2.21722 3.93864 2.18187 3.75951 2.18222 3.57867C2.1824 3.30652 2.26327 3.04054 2.41461 2.81435C2.56596 2.58817 2.78097 2.41194 3.03247 2.30796C3.28397 2.20397 3.56065 2.1769 3.82754 2.23017C4.09442 2.28343 4.33952 2.41464 4.53183 2.60721C4.72414 2.79977 4.85503 3.04503 4.90796 3.31198C4.96088 3.57894 4.93345 3.85559 4.82914 4.10695C4.72483 4.35831 4.54833 4.5731 4.32195 4.72415C4.09557 4.8752 3.82948 4.95573 3.55733 4.95556H3.55822ZM4.74578 13.6347H2.36978V6H4.74667V13.6347H4.74578ZM14.8178 0H1.18133C0.527111 0 0 0.515556 0 1.15289V14.8471C0 15.4844 0.528 16 1.18044 16H14.8142C15.4667 16 16 15.4844 16 14.8471V1.15289C16 0.515556 15.4667 0 14.8142 0H14.8169H14.8178Z" fill="#FCFCFC"/>
</svg>
