<svg width="21" height="21" viewBox="0 0 21 21" fill="none" xmlns="http://www.w3.org/2000/svg">
<path d="M1.75268 0.844206L20.2445 8.51371C20.4314 8.59109 20.5926 8.7198 20.7094 8.88495C20.8262 9.05009 20.8939 9.24494 20.9046 9.44694C20.9153 9.64894 20.8686 9.84984 20.7699 10.0264C20.6712 10.203 20.5245 10.348 20.3468 10.4447L2.76929 20.0259C2.5891 20.1242 2.38445 20.1687 2.17969 20.1541C1.97493 20.1395 1.77867 20.0664 1.61428 19.9434C1.44988 19.8205 1.32427 19.6529 1.25238 19.4606C1.18049 19.2683 1.16535 19.0595 1.20876 18.8588L2.66251 12.1485C2.6803 12.0662 2.72191 11.991 2.78214 11.9323C2.84237 11.8735 2.91856 11.8338 3.00122 11.8181L11.6775 10.1677C11.7137 10.1606 11.7475 10.1442 11.7756 10.1202C11.8036 10.0961 11.825 10.0652 11.8376 10.0305L11.8502 9.9766C11.8544 9.92845 11.8422 9.88029 11.8156 9.83994C11.789 9.79959 11.7495 9.76942 11.7036 9.75433L11.6559 9.74398L2.86234 9.01951C2.77863 9.01243 2.69884 8.9809 2.63291 8.92884C2.56697 8.87679 2.51778 8.8065 2.49147 8.72672L0.324299 2.17052C0.259698 1.97555 0.252501 1.76612 0.303564 1.56717C0.354626 1.36822 0.461797 1.18815 0.612311 1.04839C0.762825 0.90863 0.950338 0.815079 1.15252 0.778879C1.3547 0.742678 1.56302 0.765354 1.75268 0.844206Z" fill="#FCFCFC"/>
</svg>
