<svg width="16" height="16" viewBox="0 0 16 16" fill="none" xmlns="http://www.w3.org/2000/svg">
<path d="M3.34542 10.1374C3.34385 10.5805 3.16708 11.005 2.85371 11.3182C2.54033 11.6314 2.11578 11.808 1.67271 11.8093C1.22949 11.808 0.804814 11.6313 0.491411 11.3179C0.178009 11.0045 0.00134581 10.5798 0 10.1366C0 9.21563 0.751741 8.46303 1.67271 8.46303H3.34627V10.1366L3.34542 10.1374ZM4.189 10.1374C4.189 9.21648 4.94074 8.46388 5.86171 8.46388C6.78267 8.46388 7.53526 9.21648 7.53526 10.1374V14.3273C7.53392 14.7707 7.35714 15.1955 7.04355 15.5089C6.72997 15.8223 6.30507 15.9989 5.86171 16C5.41849 15.9987 4.99381 15.822 4.68041 15.5086C4.36701 15.1952 4.19034 14.7705 4.189 14.3273V10.1374ZM5.86171 3.34542C5.41864 3.34385 4.99418 3.16708 4.68096 2.85371C4.36774 2.54033 4.19119 2.11578 4.18985 1.67271C4.18985 0.751741 4.94159 0 5.86256 0C6.78352 0 7.53611 0.751741 7.53611 1.67271V3.34627H5.86171V3.34542ZM5.86171 4.189C6.78267 4.189 7.53526 4.94074 7.53526 5.86171C7.53414 6.30522 7.35746 6.73024 7.04385 7.04385C6.73024 7.35746 6.30522 7.53414 5.86171 7.53526H1.67271C1.22935 7.53392 0.804539 7.35714 0.491112 7.04355C0.177686 6.72997 0.00112153 6.30507 0 5.86171C0 4.94074 0.751741 4.189 1.67271 4.189H5.86256H5.86171ZM12.6537 5.86171C12.6537 4.94074 13.4063 4.189 14.3273 4.189C15.2483 4.189 16 4.94074 16 5.86171C15.9989 6.30507 15.8223 6.72997 15.5089 7.04355C15.1955 7.35714 14.7707 7.53392 14.3273 7.53526H12.6537V5.86171ZM11.8102 5.86171C11.809 6.30507 11.6325 6.72997 11.319 7.04355C11.0056 7.35714 10.5808 7.53392 10.1374 7.53526C9.69393 7.53414 9.26891 7.35746 8.9553 7.04385C8.64169 6.73024 8.46501 6.30522 8.46388 5.86171V1.67271C8.46388 0.751741 9.21648 0 10.1374 0C11.0584 0 11.8102 0.751741 11.8102 1.67271V5.86256V5.86171ZM10.1374 12.6537C11.0584 12.6537 11.8102 13.4063 11.8102 14.3273C11.8088 14.7705 11.6321 15.1952 11.3187 15.5086C11.0053 15.822 10.5807 15.9987 10.1374 16C9.69408 15.9989 9.26918 15.8223 8.9556 15.5089C8.64201 15.1955 8.46523 14.7707 8.46388 14.3273V12.6537H10.1374ZM10.1374 11.8102C9.69408 11.809 9.26918 11.6325 8.9556 11.319C8.64201 11.0056 8.46523 10.5808 8.46388 10.1374C8.46388 9.21648 9.21648 8.46388 10.1374 8.46388H14.3273C15.2483 8.46388 16 9.21648 16 10.1374C15.9987 10.5807 15.822 11.0053 15.5086 11.3187C15.1952 11.6321 14.7705 11.8088 14.3273 11.8102H10.1374Z" fill="#FCFCFC"/>
</svg>
