<svg width="24" height="24" viewBox="0 0 24 24" fill="none" xmlns="http://www.w3.org/2000/svg">
<path d="M9.33321 13.2995H1.33321C0.979589 13.2995 0.640451 13.4349 0.390402 13.6759C0.140354 13.9169 -0.00012207 14.2438 -0.00012207 14.5847V22.2959C-0.00012207 22.6367 0.140354 22.9636 0.390402 23.2047C0.640451 23.4457 0.979589 23.5811 1.33321 23.5811H9.33321C9.68683 23.5811 10.026 23.4457 10.276 23.2047C10.5261 22.9636 10.6665 22.6367 10.6665 22.2959V14.5847C10.6665 14.2438 10.5261 13.9169 10.276 13.6759C10.026 13.4349 9.68683 13.2995 9.33321 13.2995ZM7.99988 21.0107H2.66654V15.8699H7.99988V21.0107ZM22.6665 0.44751H14.6665C14.3129 0.44751 13.9738 0.582914 13.7237 0.823936C13.4737 1.06496 13.3332 1.39185 13.3332 1.73271V9.4439C13.3332 9.78476 13.4737 10.1117 13.7237 10.3527C13.9738 10.5937 14.3129 10.7291 14.6665 10.7291H22.6665C23.0202 10.7291 23.3593 10.5937 23.6094 10.3527C23.8594 10.1117 23.9999 9.78476 23.9999 9.4439V1.73271C23.9999 1.39185 23.8594 1.06496 23.6094 0.823936C23.3593 0.582914 23.0202 0.44751 22.6665 0.44751ZM21.3332 8.1587H15.9999V3.01791H21.3332V8.1587ZM22.6665 17.1551H19.9999V14.5847C19.9999 14.2438 19.8594 13.9169 19.6094 13.6759C19.3593 13.4349 19.0202 13.2995 18.6665 13.2995C18.3129 13.2995 17.9738 13.4349 17.7237 13.6759C17.4737 13.9169 17.3332 14.2438 17.3332 14.5847V17.1551H14.6665C14.3129 17.1551 13.9738 17.2905 13.7237 17.5315C13.4737 17.7725 13.3332 18.0994 13.3332 18.4403C13.3332 18.7811 13.4737 19.108 13.7237 19.3491C13.9738 19.5901 14.3129 19.7255 14.6665 19.7255H17.3332V22.2959C17.3332 22.6367 17.4737 22.9636 17.7237 23.2047C17.9738 23.4457 18.3129 23.5811 18.6665 23.5811C19.0202 23.5811 19.3593 23.4457 19.6094 23.2047C19.8594 22.9636 19.9999 22.6367 19.9999 22.2959V19.7255H22.6665C23.0202 19.7255 23.3593 19.5901 23.6094 19.3491C23.8594 19.108 23.9999 18.7811 23.9999 18.4403C23.9999 18.0994 23.8594 17.7725 23.6094 17.5315C23.3593 17.2905 23.0202 17.1551 22.6665 17.1551ZM9.33321 0.44751H1.33321C0.979589 0.44751 0.640451 0.582914 0.390402 0.823936C0.140354 1.06496 -0.00012207 1.39185 -0.00012207 1.73271V9.4439C-0.00012207 9.78476 0.140354 10.1117 0.390402 10.3527C0.640451 10.5937 0.979589 10.7291 1.33321 10.7291H9.33321C9.68683 10.7291 10.026 10.5937 10.276 10.3527C10.5261 10.1117 10.6665 9.78476 10.6665 9.4439V1.73271C10.6665 1.39185 10.5261 1.06496 10.276 0.823936C10.026 0.582914 9.68683 0.44751 9.33321 0.44751ZM7.99988 8.1587H2.66654V3.01791H7.99988V8.1587Z" fill="#FCFCFC"/>
</svg>
